<svg xmlns="http://www.w3.org/2000/svg" width="19.021" height="19.022" viewBox="0 0 19.021 19.022">
  <path id="sun" d="M9.511,5.944a3.567,3.567,0,1,0,3.567,3.567A3.572,3.572,0,0,0,9.511,5.944Zm9.154,2.991L15.147,7.178l1.245-3.73a.642.642,0,0,0-.814-.814l-3.73,1.245L10.087.357a.643.643,0,0,0-1.152,0L7.178,3.875,3.444,2.63a.642.642,0,0,0-.814.814l1.245,3.73L.357,8.935a.643.643,0,0,0,0,1.152l3.518,1.757L2.63,15.578a.642.642,0,0,0,.814.814l3.73-1.245,1.757,3.518a.643.643,0,0,0,1.152,0l1.757-3.518,3.73,1.245a.642.642,0,0,0,.814-.814l-1.245-3.73,3.518-1.757a.644.644,0,0,0,.007-1.155Zm-5.792,3.938a4.755,4.755,0,1,1,0-6.725A4.761,4.761,0,0,1,12.873,12.873Z" transform="translate(0 0)" fill="#fff"/>
</svg>
