<svg xmlns="http://www.w3.org/2000/svg" viewBox="0 0 312.93 60.09"><defs><style>.cls-1{fill:#2870bf;}.cls-2{fill:#dee7fc;}</style></defs><title>Asset 4SVG</title><g id="Layer_2" data-name="Layer 2"><g id="Layer_1-2" data-name="Layer 1"><path class="cls-1" d="M36.65.05c3,0,2.87,0,5.87,0C49.34.16,55.23,4.5,56.43,11.9a13.49,13.49,0,0,1-7.28,14.34A4,4,0,0,0,49,33.61a14.32,14.32,0,0,1,5.93,5.79,14,14,0,0,1-1.82,15.82A14.31,14.31,0,0,1,42.16,60c-6.08.09-9,0-15.1,0-2.71,0-3.87-1.22-3.88-4a11.75,11.75,0,0,1,0-1.57,4.18,4.18,0,0,1,4.22-3.82q3.91-.09,7.85,0c3.31.05,5.2-1.73,5.11-5.19,0-1.31,0-2.62,0-3.93-.1-2.93-1.76-4.54-4.7-4.56-2.22,0-4.45,0-6.67,0a7.65,7.65,0,0,1-3-.62,4.11,4.11,0,0,1-2.75-3.9q-.09-2.55,0-5.1a4.13,4.13,0,0,1,4.22-4.21c2.62-.07,5.24-.1,7.85,0a4.62,4.62,0,0,0,5.11-5c-.06-1.37,0-2.75,0-4.12-.11-2.94-1.76-4.51-4.72-4.53-2.16,0-4.31,0-6.47,0A8.16,8.16,0,0,1,26.29,9a4.48,4.48,0,0,1-3.13-4.26C22.89,1,24.46-.15,27.62,0,30.62.17,33.64.05,36.65.05Z"/><path class="cls-2" d="M105.88,24.66c-.45-.26-.89-.55-1.38-.86A12.23,12.23,0,0,0,107.56,15c-.4-5.82-3.23-8.86-8.1-10.23a24.44,24.44,0,0,0-6.59-.81H76.58c-.49,0-1-.19-1.52.2V54.79c.36.33.7.21,1,.21,5.62,0,11.25,0,16.88,0a23.88,23.88,0,0,0,6.58-.87A20.75,20.75,0,0,0,109,48.9C115.28,42.62,114.36,29.42,105.88,24.66ZM83.77,11.87c3.59.13,7.1-.31,10.59.3a7,7,0,0,1,2.37.88,4,4,0,0,1,0,7.07,6.65,6.65,0,0,1-3.31,1.07c-3.19.08-6.38,0-9.68,0ZM103.44,42.4a6.85,6.85,0,0,1-3.15,3.12,11.17,11.17,0,0,1-3.91,1.19,24,24,0,0,1-2.94.13H83.77V29.49c4,0,7.82-.06,11.67,0a9.89,9.89,0,0,1,4.79,1.56A8.74,8.74,0,0,1,103.44,42.4Z"/><path class="cls-2" d="M215.59,55h-8.76c-.44-.46-.24-1-.24-1.51,0-6.93-.07-13.87,0-20.8a5.94,5.94,0,0,0-3.77-5.63,6.39,6.39,0,0,0-6.92,1.3,5.88,5.88,0,0,0-1.68,4.44c-.17,6.93-.14,13.86-.15,20.79v1.16a35.05,35.05,0,0,1-8.82.09v-1.9c0-6.67-.05-13.34,0-20A6.28,6.28,0,0,0,176,27.3a5.59,5.59,0,0,0-3.22,5.4c0,6.74,0,13.48,0,20.22v2h-8.67c-.34-1.31-.44-33.74-.09-36.43h8.62c.36,1,0,2.16.27,3.41a13.09,13.09,0,0,1,10.24-3.47A12.55,12.55,0,0,1,192.54,24c.53-.65,1-1.26,1.48-1.8a13,13,0,0,1,18.88.5,10.15,10.15,0,0,1,2.66,6.59C215.62,37.79,215.59,46.29,215.59,55Z"/><path class="cls-2" d="M259.61,18.47a18.75,18.75,0,0,0-4.18.16c-.22.75.07,1.43-.23,2-.07,0-.13,0-.18,0-.51-.27-1-.57-1.55-.82-8.36-4-16.41-3.46-23.79,2.16a18.19,18.19,0,0,0-2.6,27c5.69,6.21,12.83,8.2,21,6.56a24.46,24.46,0,0,0,7-2.85c.4.7,0,1.48.38,2.19H264V18.46C262.49,18.46,261.05,18.43,259.61,18.47ZM248.89,46.73a11.89,11.89,0,0,1-5,1.27,12.46,12.46,0,0,1-9.48-3.54,10.7,10.7,0,0,1,.54-16,13,13,0,0,1,17.17.51C257.55,34.36,255.94,43.27,248.89,46.73Z"/><path class="cls-2" d="M304.35,18.55v2.17a1.32,1.32,0,0,1-.3,0c-.53-.27-1-.57-1.56-.82-7.87-3.82-15.58-3.54-22.85,1.36A18.38,18.38,0,0,0,277,50.1c5.6,5.34,12.34,7.06,19.91,5.52a25.34,25.34,0,0,0,7.32-3c0,.81.08,1.5.12,2.24h8.54V18.55ZM302.19,43.1c-4.85,6.59-15.38,6.54-20.15-.1-4.48-6.22-1.25-14.81,6.4-17a9.91,9.91,0,0,1,3.19-.5,12.66,12.66,0,0,1,9.64,3.81A10.52,10.52,0,0,1,302.19,43.1Z"/><path class="cls-1" d="M16.91,50.65c-1.18,0-2.36,0-3.53,0a3.66,3.66,0,0,0-3.62,3.62c0,.79,0,1.58,0,2.36A3.4,3.4,0,0,1,6.37,60a18.18,18.18,0,0,1-3.13,0A3.18,3.18,0,0,1,.09,56.88C0,54.92,0,4.57.07,3.46.23,1.22,1.48.08,3.75.05c.79,0,1.57,0,2.36,0A3.36,3.36,0,0,1,9.72,3.36c.07.71,0,1.43,0,2.15a3.82,3.82,0,0,0,4,3.93q3.63.08,7.26,0a7.79,7.79,0,0,1,3.56.86,3.6,3.6,0,0,1,2.14,3.26,48.2,48.2,0,0,1,0,5.1A3.6,3.6,0,0,1,24.37,22a12.28,12.28,0,0,1-4.89,1.13c-1.9,0-3.81.1-5.69,0a4,4,0,0,0-4.08,4c.13,2,0,3.92,0,5.89A3.72,3.72,0,0,0,13.7,37Q17.33,37,21,37a6.81,6.81,0,0,1,3.2.71,4,4,0,0,1,2.53,3.83c0,1.37,0,2.75,0,4.12a4.19,4.19,0,0,1-3,4.27A17.32,17.32,0,0,1,16.91,50.65Z"/><path class="cls-2" d="M156.91,26.55h-7.39c-.51.5-.36,1-.36,1.43,0,5.23.07,10.47,0,15.7-.05,2.3,1.26,3.38,3.19,3.18.83-.09,1.67,0,2.74,0V55c-3-.1-5.94.3-8.82-.21-3.71-.66-5.85-3.41-5.87-7.24,0-6.28,0-12.56,0-18.84V26.63h-4.69c-.28-2.76,0-5.34-.16-8,1.62-.35,3.19,0,4.85-.26V9.22h8.76v9.17h7.81Z"/><path class="cls-2" d="M120,18.49h8.74V55H120Z"/><path class="cls-2" d="M124.32,13a4.79,4.79,0,0,1-4.9-4.75,4.88,4.88,0,0,1,5.65-4.35,4.54,4.54,0,0,1,4.18,5.29A4.66,4.66,0,0,1,124.32,13Z"/></g></g></svg>